# xmcd CD database file
# Copyright (C) 1993-1997  Ti Kan
#
# Track frame offsets:
#	150
#	8025
#	18450
#	33375
#	45300
#	58800
#	74550
#	87600
#	103285
#	115500
#	129900
#	145912
#	154350
#	171900
#	182025
#	195982
#	205350
#	219150
#	233100
#	245475
#	257550
#	276487
#
# Disc length: 3770 seconds
#
# Revision: 1
# Processed by: cddbd v1.4b41PL1 Copyright (c) Steve Scherf et al.
# Submitted via: xmcd 2.1 PL1
#
DISCID=3f0eb816
DTITLE=Riders In The Sky - Best Of The West
DYEAR=1900
DGENRE=
TTITLE0=Cowboy Jubilee
TTITLE1=That's How The Yodel Was Born
TTITLE2=Ghost Riders In The Sky
TTITLE3=Don't Fence Me In
TTITLE4=Ol' Cowpoke
TTITLE5=Wasteland
TTITLE6=Blue Bonnett Lady
TTITLE7=Blue Montana Skies
TTITLE8=After You've Gone
TTITLE9=Here Comes The Santa Fe
TTITLE10=Tumbling Tumbleweeds
TTITLE11=La Cucaracha
TTITLE12=Soon As The Roundup's Through
TTITLE13=I Ride An Old Paint
TTITLE14=Riding Alone
TTITLE15=Hold That Critter Down
TTITLE16=Ride With The Wind
TTITLE17=Cowboy Song
TTITLE18=Prairie Serenade
TTITLE19=Nevada
TTITLE20=Home On The Range
TTITLE21=So Long Saddle Pals
EXTD=
EXTT0=
EXTT1=
EXTT2=
EXTT3=
EXTT4=
EXTT5=
EXTT6=
EXTT7=
EXTT8=
EXTT9=
EXTT10=
EXTT11=
EXTT12=
EXTT13=
EXTT14=
EXTT15=
EXTT16=
EXTT17=
EXTT18=
EXTT19=
EXTT20=
EXTT21=
PLAYORDER=
